{
  "accessors": [
    {
      "bufferView": 2,
      "componentType": 5126,
      "count": 65532,
      "max": [
        0.88821601867675781,
        2.8476510047912598,
        6.0367469787597656
      ],
      "min": [
        -3.9846110343933105,
        -1.7031010389328003,
        -0.0088419998064637184
      ],
      "type": "VEC3"
    },
    {
      "bufferView": 2,
      "byteOffset": 786384,
      "componentType": 5126,
      "count": 65532,
      "max": [
        0.99994814395904541,
        0.99998009204864502,
        0.99999678134918213
      ],
      "min": [
        -0.99999654293060303,
        -0.99999308586120605,
        -0.99999475479125977
      ],
      "type": "VEC3"
    },
    {
      "bufferView": 3,
      "componentType": 5126,
      "count": 65532,
      "max": [
        0.99999773502349854,
        0.9999966025352478,
        0.99880343675613403,
        1
      ],
      "min": [
        -0.99999654293060303,
        -0.99997717142105103,
        -0.99976009130477905,
        -1
      ],
      "type": "VEC4"
    },
    {
      "bufferView": 1,
      "componentType": 5126,
      "count": 65532,
      "max": [
        0.94988900423049927,
        0.94797199964523315
      ],
      "min": [
        0.051066000014543533,
        0.042385999113321304
      ],
      "type": "VEC2"
    },
    {
      "bufferView": 0,
      "componentType": 5125,
      "count": 342780,
      "max": [
        65531
      ],
      "min": [
        0
      ],
      "type": "SCALAR"
    },
    {
      "bufferView": 2,
      "byteOffset": 1572768,
      "componentType": 5126,
      "count": 65532,
      "max": [
        3.9605569839477539,
        2.8476510047912598,
        6.0368390083312988
      ],
      "min": [
        -3.9844429492950439,
        -1.701727032661438,
        -0.017599999904632568
      ],
      "type": "VEC3"
    },
    {
      "bufferView": 2,
      "byteOffset": 2359152,
      "componentType": 5126,
      "count": 65532,
      "max": [
        0.99988770484924316,
        0.99999153614044189,
        0.99999678134918213
      ],
      "min": [
        -0.99998342990875244,
        -0.99999523162841797,
        -1
      ],
      "type": "VEC3"
    },
    {
      "bufferView": 3,
      "byteOffset": 1048512,
      "componentType": 5126,
      "count": 65532,
      "max": [
        0.99999839067459106,
        0.99999970197677612,
        0.99829322099685669,
        1
      ],
      "min": [
        -0.99999964237213135,
        -0.9999803900718689,
        -0.97685694694519043,
        -1
      ],
      "type": "VEC4"
    },
    {
      "bufferView": 1,
      "byteOffset": 524256,
      "componentType": 5126,
      "count": 65532,
      "max": [
        0.98041200637817383,
        0.94704997539520264
      ],
      "min": [
        0.049561001360416412,
        0.019091000780463219
      ],
      "type": "VEC2"
    },
    {
      "bufferView": 0,
      "byteOffset": 1371120,
      "componentType": 5125,
      "count": 334206,
      "max": [
        65531
      ],
      "min": [
        0
      ],
      "type": "SCALAR"
    },
    {
      "bufferView": 2,
      "byteOffset": 3145536,
      "componentType": 5126,
      "count": 65444,
      "max": [
        3.9844169616699219,
        2.8378870487213135,
        6.029994010925293
      ],
      "min": [
        -3.9846110343933105,
        -1.7021960020065308,
        -0.016557000577449799
      ],
      "type": "VEC3"
    },
    {
      "bufferView": 2,
      "byteOffset": 3930864,
      "componentType": 5126,
      "count": 65444,
      "max": [
        0.99998438358306885,
        0.99949663877487183,
        0.99994957447052002
      ],
      "min": [
        -0.9999927282333374,
        -0.99999773502349854,
        -1
      ],
      "type": "VEC3"
    },
    {
      "bufferView": 3,
      "byteOffset": 2097024,
      "componentType": 5126,
      "count": 65444,
      "max": [
        0.99999773502349854,
        1,
        0.99908483028411865,
        1
      ],
      "min": [
        -0.99999678134918213,
        -0.99995148181915283,
        -0.99771851301193237,
        -1
      ],
      "type": "VEC4"
    },
    {
      "bufferView": 1,
      "byteOffset": 1048512,
      "componentType": 5126,
      "count": 65444,
      "max": [
        0.97559797763824463,
        0.94596600532531738
      ],
      "min": [
        0.051353000104427338,
        0.019184000790119171
      ],
      "type": "VEC2"
    },
    {
      "bufferView": 0,
      "byteOffset": 2707944,
      "componentType": 5125,
      "count": 324102,
      "max": [
        65443
      ],
      "min": [
        0
      ],
      "type": "SCALAR"
    }
  ],
  "asset": {
    "extras": {
      "author": "moxstudios (https://sketchfab.com/moxstudios)",
      "license": "CC-BY-4.0 (http://creativecommons.org/licenses/by/4.0/)",
      "source": "https://sketchfab.com/3d-models/batman-free-f2d4c36adb3545b6bdc1b88c0db50af2",
      "title": "Batman Free"
    },
    "generator": "Sketchfab-7.88.0",
    "version": "2.0"
  },
  "bufferViews": [
    {
      "buffer": 0,
      "byteLength": 4004352,
      "byteOffset": 0,
      "name": "floatBufferViews",
      "target": 34963
    },
    {
      "buffer": 0,
      "byteLength": 1572064,
      "byteOffset": 4004352,
      "byteStride": 8,
      "name": "floatBufferViews",
      "target": 34962
    },
    {
      "buffer": 0,
      "byteLength": 4716192,
      "byteOffset": 5576416,
      "byteStride": 12,
      "name": "floatBufferViews",
      "target": 34962
    },
    {
      "buffer": 0,
      "byteLength": 3144128,
      "byteOffset": 10292608,
      "byteStride": 16,
      "name": "floatBufferViews",
      "target": 34962
    }
  ],
  "buffers": [
    {
      "byteLength": 13436736,
      "uri": "scene.bin"
    }
  ],
  "images": [
    {
      "uri": "textures/body.001_baseColor.png"
    },
    {
      "uri": "textures/body.001_metallicRoughness.png"
    },
    {
      "uri": "textures/body.001_normal.png"
    }
  ],
  "materials": [
    {
      "doubleSided": true,
      "name": "body.001",
      "normalTexture": {
        "index": 2,
        "scale": 1,
        "texCoord": 0
      },
      "pbrMetallicRoughness": {
        "baseColorFactor": [
          1,
          1,
          1,
          1
        ],
        "baseColorTexture": {
          "index": 0,
          "texCoord": 0
        },
        "metallicFactor": 0,
        "metallicRoughnessTexture": {
          "index": 1,
          "texCoord": 0
        },
        "roughnessFactor": 1
      }
    }
  ],
  "meshes": [
    {
      "primitives": [
        {
          "attributes": {
            "NORMAL": 1,
            "POSITION": 0,
            "TANGENT": 2,
            "TEXCOORD_0": 3
          },
          "indices": 4,
          "material": 0,
          "mode": 4
        }
      ]
    },
    {
      "primitives": [
        {
          "attributes": {
            "NORMAL": 6,
            "POSITION": 5,
            "TANGENT": 7,
            "TEXCOORD_0": 8
          },
          "indices": 9,
          "material": 0,
          "mode": 4
        }
      ]
    },
    {
      "primitives": [
        {
          "attributes": {
            "NORMAL": 11,
            "POSITION": 10,
            "TANGENT": 12,
            "TEXCOORD_0": 13
          },
          "indices": 14,
          "material": 0,
          "mode": 4
        }
      ]
    }
  ],
  "nodes": [
    {
      "children": [
        1
      ],
      "name": "RootNode (gltf orientation matrix)",
      "rotation": [
        -0.70710678118654746,
        -0,
        -0,
        0.70710678118654757
      ]
    },
    {
      "children": [
        2
      ],
      "name": "RootNode (model correction matrix)"
    },
    {
      "children": [
        3,
        4,
        5
      ],
      "name": "Batman_free_des.obj.cleaner.materialmerger.gles"
    },
    {
      "mesh": 0,
      "name": ""
    },
    {
      "mesh": 1,
      "name": ""
    },
    {
      "mesh": 2,
      "name": ""
    }
  ],
  "samplers": [
    {
      "magFilter": 9729,
      "minFilter": 9987,
      "wrapS": 10497,
      "wrapT": 10497
    }
  ],
  "scene": 0,
  "scenes": [
    {
      "name": "OSG_Scene",
      "nodes": [
        0
      ]
    }
  ],
  "textures": [
    {
      "sampler": 0,
      "source": 0
    },
    {
      "sampler": 0,
      "source": 1
    },
    {
      "sampler": 0,
      "source": 2
    }
  ]
}

